<?xml version="1.0" encoding="UTF-8"?>
<svg id="Layer_1" data-name="Layer 1" xmlns="http://www.w3.org/2000/svg" viewBox="0 0 295.25 114.44">
  <defs>
    <style>
      .cls-1 {
        fill: #9f6d47;
      }

      .cls-1, .cls-2, .cls-3, .cls-4, .cls-5, .cls-6, .cls-7, .cls-8 {
        stroke-width: 0px;
      }

      .cls-2 {
        fill: #1f140f;
      }

      .cls-9, .cls-10 {
        font-family: Misty-Style, 'Misty Style';
        font-size: 53.84px;
      }

      .cls-9, .cls-4 {
        fill: #df8084;
        opacity: .7;
      }

      .cls-10 {
        fill: #7bbcd0;
      }

      .cls-3 {
        fill: #acdddc;
      }

      .cls-5 {
        fill: #6ac0d9;
      }

      .cls-6 {
        fill: #cd958f;
      }

      .cls-7 {
        fill: #e89984;
      }

      .cls-8 {
        fill: #f0c2af;
      }
    </style>
  </defs>
  <g>
    <path class="cls-8" d="m11.73,62.14c-2.03-.21-4.53.25-7.26,2.28-7.33,5.45-4.23,20.74,7.65,21.38,2.12.11,3.79-.24,5.08-.85,6.59,10.44,19.44,19.74,44.61,20.19,44.55.82,53-29.71,41.05-44.57,0,0,1.49-60.43-51.34-52.43-16.19,2.45-41.24,11.23-39.78,53.95v.05Z"/>
    <path class="cls-6" d="m17.46,64.44s-.13-.14-.42-.38c-.28-.23-.71-.57-1.29-.92-.3-.17-.62-.38-1-.53-.19-.09-.39-.18-.59-.27-.21-.07-.43-.14-.66-.22-.92-.29-1.99-.49-3.2-.43-1.2.05-2.48.36-3.71.93-.32.12-.61.3-.92.46-.31.16-.61.34-.9.55l-.44.3-.11.07-.03.02-.06.05-.05.04-.19.17c-.26.23-.52.47-.79.71-.28.21-.49.57-.74.86-.22.32-.51.61-.68.95-.35.69-.77,1.35-.97,2.11C.13,70.38,0,71.98,0,73.55c.1.78.09,1.58.31,2.34l.26,1.14.4,1.1c.23.75.65,1.4.99,2.08.38.66.86,1.25,1.3,1.84.54.51,1,1.09,1.58,1.51.29.21.58.41.86.62l.42.3.46.23c1.19.67,2.43,1.02,3.58,1.28.58.07,1.14.14,1.67.2.57.06,1.03,0,1.5,0,.94-.06,1.8-.19,2.45-.39.67-.14,1.15-.43,1.5-.55.32-.17.5-.26.5-.26.14-.08.19-.25.12-.39-.07-.14-.24-.19-.38-.13h-.01s-.16.08-.48.23c-.33.09-.77.35-1.41.45-.63.17-1.38.25-2.28.27-.45-.02-.99.01-1.44-.06-.5-.07-1.02-.15-1.56-.23-1.06-.26-2.2-.62-3.28-1.25l-.42-.22-.38-.29c-.26-.19-.51-.39-.77-.59-.52-.39-.94-.93-1.43-1.4-.4-.55-.84-1.09-1.18-1.7-.31-.63-.7-1.23-.9-1.93l-.36-1.02-.23-1.06c-.2-.7-.18-1.44-.27-2.16.01-1.45.1-2.92.61-4.26.17-.7.55-1.29.86-1.92.15-.32.39-.54.58-.82.22-.26.34-.55.64-.77.26-.24.52-.48.78-.71l.19-.18.05-.04h.01c-.07.05-.01,0-.03.01l.03-.02.1-.07.41-.28c.27-.2.54-.37.82-.53.28-.16.55-.33.84-.45,1.12-.54,2.28-.85,3.35-.93,1.07-.08,2.09.07,2.94.3.21.06.42.12.62.17.19.08.38.15.56.23.36.13.67.31.96.46.56.31.97.61,1.25.81.26.21.4.34.4.34.12.11.3.1.41-.02.11-.11.1-.29,0-.4Z"/>
    <path class="cls-7" d="m70.55,65.28c.25,1.77-1.27,3.45-3.41,3.76-2.14.31-4.08-.88-4.34-2.65-.25-1.77,1.27-3.46,3.41-3.77,2.14-.31,4.08.88,4.34,2.65Z"/>
    <path class="cls-4" d="m27.97,81.08c-.1,5.55,4.31,10.13,9.86,10.23,5.55.1,10.13-4.31,10.24-9.86.1-5.55-4.31-10.13-9.87-10.23-5.55-.1-10.12,4.32-10.22,9.87Z"/>
    <path class="cls-4" d="m83.01,78.41c-.1,5.55,4.32,10.13,9.86,10.23,5.55.1,10.13-4.31,10.23-9.86.1-5.55-4.32-10.13-9.87-10.23-5.55-.1-10.13,4.32-10.23,9.87Z"/>
    <path class="cls-6" d="m17.9,73.71s-.29-1.02-1.15-2.34c-.44-.65-.99-1.4-1.78-2.04-.39-.32-.82-.63-1.3-.87-.48-.25-1-.46-1.54-.56l-.41-.08c-.21-.04-.27-.02-.42-.03-.25-.02-.49-.03-.79,0-.29.01-.56.04-.82.11-.26.04-.52.12-.76.2-.49.15-.93.41-1.32.65-.39.25-.73.53-1.02.8-.58.55-.96,1.09-1.22,1.47-.25.39-.36.64-.36.64-.07.15,0,.32.15.39.13.06.29,0,.36-.11,0,0,.13-.19.4-.52.27-.33.69-.77,1.24-1.22.55-.45,1.27-.87,2.09-1.13.4-.13.86-.22,1.27-.22.2-.03.45,0,.7.02.11.01.29.02.33.03l.33.07c.44.09.88.24,1.28.44.41.19.79.45,1.13.72.69.55,1.28,1.16,1.71,1.74.44.58.78,1.09.99,1.46.22.37.33.58.33.58.07.14.25.2.39.13.13-.07.18-.21.15-.35Z"/>
    <g>
      <path class="cls-5" d="m33.21,11.81c-.61,1.15.4,5.11,2.24,6.2.22.13.45.22.68.26,1.38.24,3.26-.18,4.78-1.9.15-.17.26-.38.35-.61.65-1.91-.87-5.68-2.56-6.44-.22-.1-.46-.15-.7-.13-1.85.16-4.09,1.33-4.79,2.61Z"/>
      <path class="cls-3" d="m19.7,12.44c-.41,4.82,4.78,15.39,9.18,13.56,4.37-1.82,6.54-7.95,6.54-7.95l.03-.05c-1.83-1.1-2.85-5.06-2.24-6.2l-.61-.16s-12.48-4.02-12.89.8Z"/>
      <path class="cls-3" d="m38.76,9.12l-.07.2c1.69.76,3.22,4.53,2.56,6.44l.07.03s6.49,2.68,10.48.22c4.04-2.48-.25-12.53-4.04-15.52-3.79-3.01-9.01,8.62-9.01,8.62Z"/>
    </g>
    <path class="cls-2" d="m78.61,71.67s-.07.08-.2.24c-.14.13-.3.32-.57.56-.28.23-.56.55-.98.83-.41.28-.84.64-1.38.93-.26.15-.54.31-.82.48-.29.16-.62.26-.93.4-.32.13-.65.27-.99.41-.35.1-.71.2-1.08.3-.37.1-.74.21-1.11.31-.39.05-.79.11-1.18.16-.4.05-.8.11-1.2.16l-.3.04h-.27s-.65.02-.65.02c-.45.03-.84,0-1.22-.02-.38-.01-.78-.05-1.17-.12-.79-.09-1.57-.25-2.3-.46-1.48-.4-2.82-.94-3.92-1.53-1.1-.58-1.99-1.13-2.58-1.56-.29-.22-.52-.38-.68-.5-.14-.11-.22-.18-.22-.18l-.04-.03c-.25-.2-.62-.16-.82.09-.18.22-.16.54.02.75,0,0,.08.09.23.26.15.16.35.39.64.66.58.53,1.42,1.29,2.57,2.02.57.36,1.21.73,1.92,1.08.7.34,1.46.68,2.28.93.82.26,1.68.49,2.58.62.44.08.91.13,1.39.15.48.04.96.07,1.37.05l.65-.02.38-.02.34-.05c.45-.07.9-.13,1.35-.2.44-.07.89-.12,1.32-.22.42-.14.84-.27,1.25-.4.41-.14.82-.26,1.2-.4.37-.19.73-.38,1.09-.56.35-.19.7-.34,1.01-.55.31-.21.6-.42.88-.62.58-.37,1.03-.83,1.44-1.22.42-.37.7-.79.97-1.08.26-.31.43-.61.56-.79.1-.18.16-.27.16-.27.16-.28.06-.64-.22-.8-.25-.14-.56-.08-.73.13l-.02.02Z"/>
    <g>
      <path class="cls-2" d="m44.48,65.88s.08.35-.06.84c-.07.24-.18.53-.36.8-.23.24-.42.56-.75.73-.61.4-1.36.5-1.83.41-.49-.09-.78-.22-.78-.22-.23-.1-.34-.37-.24-.6.04-.1.12-.18.21-.23l.12-.06s.26-.14.59-.23c.18-.01.34-.13.51-.21.19-.04.34-.16.49-.27.18-.06.3-.22.46-.33.1-.15.3-.24.38-.39.24-.25.39-.42.41-.45.06-.24.3-.39.54-.34.24.06.39.3.34.54Z"/>
      <path class="cls-2" d="m41.23,63.58s.08.35-.07.84c-.07.24-.18.53-.36.8-.23.24-.42.55-.76.73-.61.4-1.36.51-1.83.41-.49-.09-.78-.22-.78-.22-.23-.1-.34-.37-.24-.6.04-.1.12-.18.21-.23l.12-.06s.26-.13.59-.23c.18-.01.34-.13.51-.21.19-.04.34-.15.49-.27.19-.06.3-.22.46-.33.1-.15.3-.24.38-.38.24-.25.39-.42.41-.45.06-.24.3-.39.54-.34.24.06.39.3.34.54Z"/>
      <path class="cls-2" d="m52.36,61.62s-.09.24-.29.66c-.19.42-.54.99-1.01,1.59-.47.61-1.17,1.16-1.99,1.52-.42.18-.87.29-1.34.36-.23.03-.49.05-.72.04-.3,0-.53-.02-.76-.03-2.01-.18-3.78-1.41-4.83-2.6-.53-.59-.94-1.13-1.2-1.53-.13-.2-.22-.36-.29-.46-.06-.1-.09-.16-.09-.16l-.02-.03c-.12-.21-.39-.28-.6-.16-.18.11-.26.32-.19.52,0,0,.02.07.07.21.05.13.12.33.22.57.22.47.54,1.14,1.08,1.87.54.72,1.26,1.52,2.24,2.18.97.65,2.18,1.12,3.44,1.25.33.03.66.05.93.04.33,0,.64-.03.95-.08.63-.09,1.24-.28,1.78-.55,1.11-.53,1.89-1.41,2.4-2.17.52-.78.75-1.51.91-2.01.14-.51.17-.83.17-.83.02-.24-.16-.46-.4-.48-.2-.02-.39.11-.45.29Z"/>
    </g>
    <g>
      <path class="cls-2" d="m86.8,64.42s-.06.35.11.83c.08.24.21.52.41.78.24.22.45.53.79.68.63.37,1.38.43,1.85.31.49-.12.77-.26.77-.26.23-.11.32-.39.2-.61-.04-.1-.13-.17-.22-.22l-.12-.05s-.27-.12-.6-.2c-.18,0-.35-.12-.52-.18-.19-.03-.35-.14-.5-.24-.19-.06-.31-.21-.47-.3-.11-.15-.31-.23-.4-.36-.26-.24-.41-.4-.43-.43-.07-.24-.31-.38-.55-.31-.24.07-.38.32-.31.56Z"/>
      <path class="cls-2" d="m89.92,61.95s-.06.35.11.83c.08.24.21.52.41.78.24.22.45.53.79.68.63.37,1.38.43,1.85.31.49-.12.77-.26.77-.26.23-.11.32-.39.2-.62-.05-.1-.13-.17-.22-.21l-.12-.05s-.27-.12-.61-.2c-.18,0-.34-.12-.52-.18-.19-.03-.35-.14-.5-.25-.19-.05-.31-.21-.47-.3-.11-.15-.31-.23-.4-.36-.26-.23-.41-.4-.43-.42-.07-.24-.32-.38-.55-.31-.24.07-.37.32-.31.56Z"/>
      <path class="cls-2" d="m77.86,60.83s.05.32.22.82c.18.49.45,1.22,1.01,1.96.55.74,1.37,1.57,2.51,2.04.56.24,1.18.4,1.81.45.32.03.62.04.96.02.26,0,.59-.04.92-.09,1.25-.2,2.44-.73,3.37-1.43.94-.7,1.61-1.55,2.12-2.29.5-.75.79-1.44.98-1.93.1-.24.15-.44.19-.58.04-.14.06-.22.06-.22.06-.23-.07-.47-.3-.54-.2-.06-.41.04-.51.22l-.02.04s-.03.06-.08.16c-.06.11-.15.27-.27.48-.23.41-.61.97-1.11,1.59-.98,1.25-2.69,2.57-4.69,2.86-.23.02-.46.06-.76.07-.23.01-.49.01-.72,0-.48-.04-.94-.13-1.36-.28-.84-.32-1.56-.84-2.07-1.41-.51-.58-.88-1.13-1.1-1.54-.22-.41-.32-.64-.32-.64-.09-.22-.35-.33-.58-.23-.19.08-.29.28-.27.47Z"/>
    </g>
    <path class="cls-1" d="m51.73,19.37s0-.05,0-.15c.01-.13.04-.29.11-.48.14-.39.47-.88.99-1.36,1.04-.96,2.81-2.03,5.18-2.5,1.18-.23,2.52-.3,3.9-.01,1.37.28,2.78.98,3.85,2.1.54.56.99,1.18,1.39,1.89.34.64.71,1.37.95,2.14.53,1.5.67,3.24.15,4.84-.52,1.61-1.72,2.93-3.12,3.73-1.41.81-3.03,1.19-4.59,1.02-.78-.09-1.55-.33-2.2-.77-.32-.23-.61-.49-.85-.79-.21-.25-.42-.55-.63-.87-.37-.61-.64-1.29-.69-1.99-.06-.7.1-1.4.4-1.97.62-1.16,1.68-1.79,2.62-2.11.96-.32,1.89-.3,2.6-.1.72.22,1.19.62,1.44.93.26.31.33.51.34.5.02-.01.03-.04.01-.06-.01-.02-.04-.03-.06-.01,0,0,0,0,0,0l-.38.31s-.08-.16-.3-.41c-.21-.24-.6-.56-1.2-.72-.6-.15-1.4-.15-2.23.17-.82.31-1.7.9-2.18,1.84-.49.93-.36,2.15.33,3.19.17.25.34.5.58.77.2.24.42.43.68.61.52.34,1.15.54,1.82.61,1.34.14,2.8-.2,4.03-.93,1.24-.72,2.25-1.87,2.69-3.24.44-1.36.35-2.89-.13-4.27-.21-.7-.53-1.33-.88-2.01-.33-.6-.75-1.19-1.23-1.68-.95-.99-2.16-1.64-3.39-1.92-1.24-.29-2.48-.25-3.58-.06-2.22.4-3.96,1.33-4.93,2.19-.49.43-.78.84-.9,1.13-.06.15-.08.26-.09.32,0,.09,0,.14,0,.14,0,.14-.12.24-.26.24-.13,0-.24-.12-.24-.25Z"/>
  </g>
  <text class="cls-10" transform="translate(117.96 49.28)"><tspan x="0" y="0">Giggles</tspan></text>
  <text class="cls-9" transform="translate(117.96 96.3)"><tspan x="0" y="0">Wiggles</tspan></text>
</svg>